# xmcd
# Copyright (C) 1995-1998 Ti Kan
#
# Track frame offsets:
#       150
#       14663
#       26713
#       38641
#       53098
#       71007
#       85525
#       98444
#       111845
#       119329
#       132826
#
# Disc length: 2021 seconds
#
# Revision: 0
# Processed by: cddbd v1.5.2PL0 Copyright (c) Steve Scherf et al.
# Submitted via: CD-Import v1.0
#
DISCID=8707e30b
DTITLE=Anna and Stoffner - Neongrau
DYEAR=11
DGENRE=
TTITLE0=Mir Flüüged Dur Chugelhagel
TTITLE1=S'het Müese
TTITLE2=Hindertüre
TTITLE3=Pornostars Liebed Nöd
TTITLE4=V
TTITLE5=You Like To Fuck Me
TTITLE6=Wiiter Gaa
TTITLE7=Zug
TTITLE8=Dechliiherzig
TTITLE9=Du Seisch
TTITLE10=Es Git Nur Eini
EXTD=
EXTT0=
EXTT1=
EXTT2=
EXTT3=
EXTT4=
EXTT5=
EXTT6=
EXTT7=
EXTT8=
EXTT9=
EXTT10=
PLAYORDER=
